<svg xmlns="http://www.w3.org/2000/svg" viewBox="0 0 100 100">
  <defs>
    <clipPath id="disc"><circle cx="50" cy="50" r="36"/></clipPath>
  </defs>
  <g clip-path="url(#disc)">
    <rect width="100" height="100" fill="#8f6f48"/>
    <path fill="#7a5c3c" d="M14 60c9-5 17-3 25 2s17 7 26 2 15-5 21-2v38H14z"/>
    <ellipse cx="63" cy="33" rx="14" ry="7" fill="#7a5c3c" transform="rotate(-20 63 33)"/>
    <ellipse cx="30" cy="30" rx="8" ry="4" fill="#a3825a" transform="rotate(-30 30 30)"/>
    <circle cx="37" cy="38" r="8" fill="#634930"/>
    <circle cx="39" cy="40" r="6.2" fill="#836443"/>
    <circle cx="61" cy="59" r="9" fill="#5c432c"/>
    <circle cx="63.2" cy="61.2" r="7" fill="#76593a"/>
    <circle cx="60" cy="30" r="4.5" fill="#634930"/>
    <circle cx="61.1" cy="31.1" r="3.4" fill="#836443"/>
    <circle cx="29" cy="62" r="3.6" fill="#5c432c"/>
    <circle cx="29.9" cy="62.9" r="2.6" fill="#76593a"/>
    <circle cx="47" cy="53" r="2.6" fill="#634930"/>
    <circle cx="47.6" cy="53.6" r="1.8" fill="#836443"/>
    <circle cx="74" cy="44" r="3.2" fill="#634930"/>
    <circle cx="74.8" cy="44.8" r="2.3" fill="#836443"/>
    <circle cx="44" cy="74" r="4.2" fill="#5c432c"/>
    <circle cx="45" cy="75" r="3.1" fill="#76593a"/>
    <path fill="#040a11" fill-opacity=".3" fill-rule="evenodd" d="M0 0h100v100H0z M7 41a34 34 0 1 0 68 0a34 34 0 1 0 -68 0z"/>
    <path fill="#040a11" fill-opacity=".38" fill-rule="evenodd" d="M0 0h100v100H0z M-2 39a41 41 0 1 0 82 0a41 41 0 1 0 -82 0z"/>
    <path fill="#fff" fill-opacity=".13" fill-rule="evenodd" d="M0 0h100v100H0z M16.5 52.5a36 36 0 1 0 72 0a36 36 0 1 0 -72 0z"/>
  </g>
</svg>
